<svg width="801" height="800" viewBox="0 0 801 800" fill="none" xmlns="http://www.w3.org/2000/svg">
<circle cx="400.317" cy="400" r="400" fill="#539FFF"/>
<circle opacity="0.15" cx="400.317" cy="400" r="217.155" fill="white"/>
<path d="M147.899 356.227V443.5H131.962L93.993 388.571H93.3538V443.5H74.9021V356.227H91.0953L128.766 411.114H129.533V356.227H147.899ZM237.343 399.864C237.343 409.381 235.539 417.477 231.931 424.153C228.352 430.83 223.465 435.929 217.272 439.452C211.107 442.946 204.176 444.693 196.477 444.693C188.721 444.693 181.761 442.932 175.596 439.409C169.431 435.886 164.559 430.787 160.98 424.111C157.4 417.435 155.61 409.352 155.61 399.864C155.61 390.347 157.4 382.25 160.98 375.574C164.559 368.898 169.431 363.812 175.596 360.318C181.761 356.795 188.721 355.034 196.477 355.034C204.176 355.034 211.107 356.795 217.272 360.318C223.465 363.812 228.352 368.898 231.931 375.574C235.539 382.25 237.343 390.347 237.343 399.864ZM218.636 399.864C218.636 393.699 217.712 388.5 215.866 384.267C214.048 380.034 211.477 376.824 208.153 374.636C204.829 372.449 200.937 371.355 196.477 371.355C192.016 371.355 188.124 372.449 184.801 374.636C181.477 376.824 178.891 380.034 177.045 384.267C175.227 388.5 174.318 393.699 174.318 399.864C174.318 406.028 175.227 411.227 177.045 415.46C178.891 419.693 181.477 422.903 184.801 425.091C188.124 427.278 192.016 428.372 196.477 428.372C200.937 428.372 204.829 427.278 208.153 425.091C211.477 422.903 214.048 419.693 215.866 415.46C217.712 411.227 218.636 406.028 218.636 399.864ZM237.703 371.44V356.227H309.379V371.44H282.661V443.5H264.422V371.44H237.703ZM336.957 443.5V356.227H394.741V371.44H355.409V392.236H390.906V407.449H355.409V443.5H336.957ZM481.351 399.864C481.351 409.381 479.547 417.477 475.939 424.153C472.36 430.83 467.473 435.929 461.28 439.452C455.115 442.946 448.183 444.693 440.485 444.693C432.729 444.693 425.769 442.932 419.604 439.409C413.439 435.886 408.567 430.787 404.987 424.111C401.408 417.435 399.618 409.352 399.618 399.864C399.618 390.347 401.408 382.25 404.987 375.574C408.567 368.898 413.439 363.812 419.604 360.318C425.769 356.795 432.729 355.034 440.485 355.034C448.183 355.034 455.115 356.795 461.28 360.318C467.473 363.812 472.36 368.898 475.939 375.574C479.547 382.25 481.351 390.347 481.351 399.864ZM462.644 399.864C462.644 393.699 461.72 388.5 459.874 384.267C458.056 380.034 455.485 376.824 452.161 374.636C448.837 372.449 444.945 371.355 440.485 371.355C436.024 371.355 432.132 372.449 428.808 374.636C425.485 376.824 422.899 380.034 421.053 384.267C419.235 388.5 418.325 393.699 418.325 399.864C418.325 406.028 419.235 411.227 421.053 415.46C422.899 419.693 425.485 422.903 428.808 425.091C432.132 427.278 436.024 428.372 440.485 428.372C444.945 428.372 448.837 427.278 452.161 425.091C455.485 422.903 458.056 419.693 459.874 415.46C461.72 411.227 462.644 406.028 462.644 399.864ZM542.926 356.227H561.377V412.903C561.377 419.267 559.857 424.835 556.818 429.608C553.806 434.381 549.587 438.102 544.161 440.773C538.735 443.415 532.414 444.736 525.198 444.736C517.954 444.736 511.619 443.415 506.193 440.773C500.766 438.102 496.548 434.381 493.536 429.608C490.525 424.835 489.019 419.267 489.019 412.903V356.227H507.471V411.327C507.471 414.651 508.195 417.605 509.644 420.19C511.122 422.776 513.195 424.807 515.866 426.284C518.536 427.761 521.647 428.5 525.198 428.5C528.778 428.5 531.889 427.761 534.531 426.284C537.201 424.807 539.261 422.776 540.71 420.19C542.187 417.605 542.926 414.651 542.926 411.327V356.227ZM643.556 356.227V443.5H627.618L589.649 388.571H589.01V443.5H570.558V356.227H586.752L624.422 411.114H625.189V356.227H643.556ZM683.738 443.5H652.801V356.227H683.994C692.772 356.227 700.329 357.974 706.664 361.469C712.999 364.935 717.872 369.92 721.281 376.426C724.718 382.932 726.437 390.716 726.437 399.778C726.437 408.869 724.718 416.682 721.281 423.216C717.872 429.75 712.971 434.764 706.579 438.259C700.215 441.753 692.602 443.5 683.738 443.5ZM671.252 427.69H682.971C688.426 427.69 693.014 426.724 696.735 424.793C700.485 422.832 703.298 419.807 705.173 415.716C707.076 411.597 708.028 406.284 708.028 399.778C708.028 393.33 707.076 388.06 705.173 383.969C703.298 379.878 700.499 376.866 696.778 374.935C693.056 373.003 688.468 372.037 683.014 372.037H671.252V427.69Z" fill="white"/>
</svg>
